<svg viewBox="0 0 45.054692 35.5" id="calendar-icon-camera" version="1.1" xmlns="http://www.w3.org/2000/svg" xmlns:xlink="http://www.w3.org/1999/xlink">
  <path d="M 11.57422,0 10.64258,3.25 C 9.75568,6.3424418 9.47542,6.4999998 4.85547,6.4999998 H 0 V 21 35.5 H 22.52735 45.05469 L 44.77735,21.25 44.5,6.9999998 l -4.99609,-0.5 C 34.8809,6.0372488 34.47048,5.7765108 33.99414,3 L 33.48047,0 H 22.52735 Z m 10.8418,9.8437498 c 0.66065,0.01266 1.33966,0.08205 2.03711,0.2128902 3.62737,0.6805 7.91064,4.584962 9.00586,8.208985 0.96297,3.186444 -1.13328,8.833194 -4.16602,11.21875 C 25.51852,32.453361 18.98706,32.20231 15.10938,28.939453 7.03748,22.147399 12.50618,9.6538308 22.41602,9.8437498 Z M 22.23242,14.5 c -1.82386,0 -4.54668,1.72055 -5.95117,5.294922 C 15.97039,20.586039 16.9,23.4 18,24.5 22.00342,28.503422 28,26.095062 28,20.484375 28,17.606601 25.00571,14.5 22.23242,14.5 Z"/>
</svg>
