<svg viewBox="0 0 37.543858 38.623314" id="calendar-icon-message" version="1.1" xmlns="http://www.w3.org/2000/svg" xmlns:xlink="http://www.w3.org/1999/xlink">
  <path fill="currentColor" d="M 7.3653549,2.6676625e-4 C 3.5038949,-0.01021323 2.4206249,0.28225277 1.1368349,1.9143298 -0.62645513,4.1559868 0.18762487,7.6385476 0.18762487,15.644798 c 0,8.658164 -0.64696,9.046397 1.61132003,11.304688 2.04809,2.048092 4.5492,2.173828 9.4433601,2.173828 5.7248,0 5.9701,0.113892 10.18359,4.75 l 4.31641,4.75 1.11328,-4.5 c 0.8559,-3.460491 1.62413,-4.574112 3.32813,-4.816406 1.21872,-0.173293 3.63747,0.01578 5.03125,-1.640625 2.24823,-2.672145 2.2539,-5.595775 2.2539,-12.669922 0,-8.3072374 0.71951,-13.0937062 -2.29883,-14.25195323 -0.89033,-0.34165 -9.87083,-0.621094 -17.21093,-0.621094 -4.95991,0 -8.2768801,-0.11676 -10.5937501,-0.12304700375 z"/>
</svg>
